<svg xmlns="http://www.w3.org/2000/svg" width="206" height="14" viewBox="0 0 206 14">
    <g data-name="그룹 4232">
        <g data-name="그룹 3781">
            <path data-name="패스 45400" d="M56.693 149.215h5.344a4.437 4.437 0 0 1 3.116 1 2.507 2.507 0 0 1 .8 1.88v.034a2.7 2.7 0 0 1-1.7 2.528c1.4.454 2.366 1.216 2.366 2.756v.033c0 2.026-1.753 3.112-4.409 3.112h-5.517zm7.166 3.209c0-.892-.75-1.443-2.094-1.443h-3.013V154h2.86c1.344 0 2.247-.5 2.247-1.54zm-1.788 3.258h-3.32v3.118h3.473c1.413 0 2.3-.535 2.3-1.556v-.032c-.001-.963-.801-1.53-2.452-1.53z" transform="translate(-54.693 -147.729)" style="fill:#fff"/>
            <path data-name="패스 45401" d="M67.28 157.974v-.033c0-1.847 1.532-2.755 3.728-2.755a7.846 7.846 0 0 1 2.417.357v-.211c0-1.215-.782-1.864-2.23-1.864a6.521 6.521 0 0 0-2.57.535l-.562-1.54a8.148 8.148 0 0 1 3.4-.7 4.147 4.147 0 0 1 2.979.956 3.454 3.454 0 0 1 .971 2.642v5.074h-2.005v-1.069a3.727 3.727 0 0 1-2.928 1.248c-1.68.002-3.2-.921-3.2-2.64zm6.179-.615v-.584a5.954 5.954 0 0 0-2.042-.34c-1.327 0-2.111.535-2.111 1.426v.033c0 .826.766 1.3 1.753 1.3 1.362-.005 2.4-.75 2.4-1.835z" transform="translate(-54.18 -147.605)" style="fill:#fff"/>
            <path data-name="패스 45402" d="M77.056 151.882h2.077v1.313a3.293 3.293 0 0 1 2.808-1.491 3 3 0 0 1 3.2 3.274v5.463h-2.06v-4.863a1.83 1.83 0 0 0-1.923-2.092 1.946 1.946 0 0 0-2.026 2.124v4.83h-2.076z" transform="translate(-53.706 -147.608)" style="fill:#fff"/>
            <path data-name="패스 45403" d="M86.377 156.321v-.033a4.173 4.173 0 0 1 4.17-4.441 3.734 3.734 0 0 1 3.065 1.508v-4.6h2.059v11.833h-2.059v-1.427a3.642 3.642 0 0 1-3.065 1.605 4.193 4.193 0 0 1-4.17-4.445zm7.268 0v-.033a2.624 2.624 0 0 0-2.6-2.74 2.572 2.572 0 0 0-2.588 2.74v.033a2.6 2.6 0 0 0 2.588 2.74 2.634 2.634 0 0 0 2.6-2.74z" transform="translate(-53.254 -147.751)" style="fill:#fff"/>
            <path data-name="패스 45404" d="M96.8 157.974v-.033c0-1.847 1.531-2.755 3.727-2.755a7.858 7.858 0 0 1 2.418.357v-.211c0-1.215-.783-1.864-2.23-1.864a6.53 6.53 0 0 0-2.571.535l-.562-1.54a8.149 8.149 0 0 1 3.406-.7 4.15 4.15 0 0 1 2.979.956 3.454 3.454 0 0 1 .97 2.642v5.074h-2.009v-1.069a3.727 3.727 0 0 1-2.928 1.25c-1.684 0-3.2-.923-3.2-2.642zm6.179-.615v-.584a5.958 5.958 0 0 0-2.042-.34c-1.328 0-2.111.535-2.111 1.426v.033c0 .826.765 1.3 1.753 1.3 1.364-.005 2.402-.75 2.402-1.835z" transform="translate(-52.748 -147.605)" style="fill:#fff"/>
            <path data-name="패스 45405" d="M106.626 148.844h2.213v1.864h-2.213zm.068 3.177h2.077v8.559h-2.077z" transform="translate(-52.272 -147.747)" style="fill:#fff"/>
        </g>
        <g data-name="그룹 3782">
            <path data-name="패스 45406" d="M113.9 149.215h1.941l6.384 7.845v-7.845h2.059v11.347h-1.753l-6.571-8.072v8.072h-2.06z" transform="translate(-51.918 -147.728)" style="fill:#fff"/>
            <path data-name="패스 45407" d="M125.6 157.974v-.033c0-1.847 1.532-2.755 3.728-2.755a7.858 7.858 0 0 1 2.418.357v-.211c0-1.215-.783-1.864-2.231-1.864a6.525 6.525 0 0 0-2.57.535l-.562-1.54a8.149 8.149 0 0 1 3.405-.7 4.15 4.15 0 0 1 2.979.956 3.457 3.457 0 0 1 .97 2.642v5.074h-2.009v-1.069a3.727 3.727 0 0 1-2.927 1.248c-1.689.002-3.201-.921-3.201-2.64zm6.18-.615v-.584a5.958 5.958 0 0 0-2.042-.34c-1.328 0-2.112.535-2.112 1.426v.033c0 .826.766 1.3 1.753 1.3 1.36-.005 2.398-.75 2.398-1.835z" transform="translate(-51.351 -147.604)" style="fill:#fff"/>
            <path data-name="패스 45408" d="M135.372 151.882h2.077v1.3a3.254 3.254 0 0 1 2.741-1.475 2.875 2.875 0 0 1 2.69 1.508 3.667 3.667 0 0 1 3.03-1.508 2.94 2.94 0 0 1 3.149 3.274v5.463H147v-4.863c0-1.362-.665-2.092-1.822-2.092a1.882 1.882 0 0 0-1.923 2.124v4.83h-2.06v-4.88c0-1.328-.682-2.075-1.821-2.075a1.906 1.906 0 0 0-1.924 2.124v4.83h-2.077z" transform="translate(-50.877 -147.607)" style="fill:#fff"/>
            <path data-name="패스 45409" d="M150 156.21v-.033a4.531 4.531 0 0 1 4.682-4.474 4.643 4.643 0 0 1 3.592 1.475l-1.294 1.313a3.133 3.133 0 0 0-2.315-1.069 2.636 2.636 0 0 0-2.6 2.723v.032a2.648 2.648 0 0 0 2.689 2.74 3.242 3.242 0 0 0 2.332-1.054l1.244 1.167a4.639 4.639 0 0 1-3.677 1.605A4.483 4.483 0 0 1 150 156.21z" transform="translate(-50.168 -147.607)" style="fill:#fff"/>
            <path data-name="패스 45410" d="M158.707 156.21v-.033a4.8 4.8 0 0 1 9.584-.032v.032a4.6 4.6 0 0 1-4.817 4.458 4.547 4.547 0 0 1-4.767-4.425zm7.525 0v-.033a2.707 2.707 0 0 0-2.758-2.755 2.627 2.627 0 0 0-2.707 2.723v.032a2.7 2.7 0 0 0 2.741 2.74 2.628 2.628 0 0 0 2.724-2.707z" transform="translate(-49.745 -147.607)" style="fill:#fff"/>
        </g>
        <g data-name="그룹 3783">
            <path data-name="패스 45411" d="M172.518 149.215h2.094v5.706l5.651-5.706h2.6l-4.971 4.879 5.192 6.468h-2.553l-4.069-5.106-1.855 1.815v3.291h-2.094z" transform="translate(-49.076 -147.728)" style="fill:#fff"/>
            <path data-name="패스 45412" d="M182.8 156.21v-.033a4.8 4.8 0 0 1 9.583-.032v.032a4.6 4.6 0 0 1-4.817 4.458 4.546 4.546 0 0 1-4.766-4.425zm7.524 0v-.033a2.707 2.707 0 0 0-2.758-2.755 2.627 2.627 0 0 0-2.706 2.723v.032a2.7 2.7 0 0 0 2.741 2.74 2.628 2.628 0 0 0 2.72-2.707z" transform="translate(-48.578 -147.607)" style="fill:#fff"/>
            <path data-name="패스 45413" d="M193.6 151.882h2.077v1.928a3.186 3.186 0 0 1 3.183-2.091v2.075h-.12c-1.8 0-3.064 1.119-3.064 3.388v3.259H193.6z" transform="translate(-48.054 -147.607)" style="fill:#fff"/>
            <path data-name="패스 45414" d="M199.23 156.195v-.033a4.344 4.344 0 0 1 4.393-4.458c2.859 0 4.306 2.14 4.306 4.6 0 .178-.017.356-.034.55h-6.605a2.473 2.473 0 0 0 2.588 2.172 3.341 3.341 0 0 0 2.435-1.021l1.209 1.021a4.642 4.642 0 0 1-3.677 1.605 4.381 4.381 0 0 1-4.615-4.436zm6.657-.633a2.276 2.276 0 0 0-2.282-2.253 2.379 2.379 0 0 0-2.332 2.253z" transform="translate(-47.781 -147.607)" style="fill:#fff"/>
            <path data-name="패스 45415" d="M208.6 157.974v-.033c0-1.847 1.532-2.755 3.728-2.755a7.858 7.858 0 0 1 2.418.357v-.211c0-1.215-.783-1.864-2.231-1.864a6.521 6.521 0 0 0-2.57.535l-.562-1.54a8.148 8.148 0 0 1 3.4-.7 4.151 4.151 0 0 1 2.98.956 3.457 3.457 0 0 1 .97 2.642v5.074h-2.009v-1.069a3.727 3.727 0 0 1-2.927 1.248c-1.682.002-3.197-.921-3.197-2.64zm6.18-.615v-.584a5.958 5.958 0 0 0-2.042-.34c-1.328 0-2.112.535-2.112 1.426v.033c0 .826.766 1.3 1.753 1.3 1.363-.005 2.401-.75 2.401-1.835z" transform="translate(-47.326 -147.604)" style="fill:#fff"/>
        </g>
        <g data-name="그룹 3784">
            <path data-name="패스 45416" d="M221.151 149.215h2.229l3.627 5.365 3.626-5.365h2.23v11.347h-2.094v-8.137l-3.762 5.349h-.068l-3.728-5.317v8.1h-2.059z" transform="translate(-46.718 -147.729)" style="fill:#fff"/>
            <path data-name="패스 45417" d="M234.11 157.974v-.033c0-1.847 1.532-2.755 3.728-2.755a7.846 7.846 0 0 1 2.417.357v-.211c0-1.215-.783-1.864-2.23-1.864a6.521 6.521 0 0 0-2.57.535l-.562-1.54a8.148 8.148 0 0 1 3.4-.7 4.147 4.147 0 0 1 2.979.956 3.454 3.454 0 0 1 .97 2.642v5.074h-2.008v-1.069a3.727 3.727 0 0 1-2.928 1.248c-1.681.002-3.196-.921-3.196-2.64zm6.179-.615v-.584a5.954 5.954 0 0 0-2.042-.34c-1.327 0-2.111.535-2.111 1.426v.033c0 .826.766 1.3 1.753 1.3 1.362-.005 2.4-.75 2.4-1.835z" transform="translate(-46.09 -147.605)" style="fill:#fff"/>
            <path data-name="패스 45418" d="M244 148.751h2.077v11.833H244z" transform="translate(-45.61 -147.751)" style="fill:#fff"/>
            <path data-name="패스 45419" d="M248.318 148.751h2.082v11.833h-2.077z" transform="translate(-45.401 -147.751)" style="fill:#fff"/>
        </g>
    </g>
</svg>
