<svg xmlns="http://www.w3.org/2000/svg" width="116" height="26" viewBox="0 0 116 26">
    <path data-name="사각형 13737" style="fill:#fff;opacity:.004" d="M0 0h116v26H0z"/>
    <path data-name="패스 45420" d="M563.086-118.436H457.608a3.339 3.339 0 0 0-3.339 3.339v11.429a3.754 3.754 0 0 0 1.1 2.652l8.075 8.074v-4.073h99.643a3.34 3.34 0 0 0 3.339-3.34V-115.1a3.339 3.339 0 0 0-3.339-3.339m.452 18.7h-100.1v2.723l-6.288-6.287v-12.412h106.387z" transform="translate(-452.269 118.436)" style="fill:#e60000"/>
    <path data-name="패스 45421" d="M87.759 7.398v7.737h-1.876v-5.7l-2.137 3.052a1.061 1.061 0 0 1-1.739 0L79.87 9.435v5.7h-1.875V7.398a1.207 1.207 0 0 1 .5-.992 1.176 1.176 0 0 1 1.631.292l2.746 3.923 2.747-3.923a1.173 1.173 0 0 1 1.63-.291 1.2 1.2 0 0 1 .506.991m-21.967 4.583-3.7-5.286a1.172 1.172 0 0 0-1.634-.289 1.194 1.194 0 0 0-.5.973v7.752h1.876v-5.7l3.7 5.284a1.174 1.174 0 0 0 1.635.288 1.191 1.191 0 0 0 .5-.972v-7.75h-1.877zm28.359-4.283a3.2 3.2 0 0 1 2.309 1.011l1.055-1.464a5.288 5.288 0 0 0-3.364-1.139c-2.719 0-5.059 1.824-5.059 4.6s2.341 4.6 5.059 4.6a5.278 5.278 0 0 0 3.364-1.139l-1.055-1.464a3.2 3.2 0 0 1-2.309 1.011 2.891 2.891 0 0 1-2.921-3.008 2.892 2.892 0 0 1 2.921-3.01m13.587 3.01a4.659 4.659 0 0 1-4.911 4.6 4.659 4.659 0 0 1-4.912-4.6 4.66 4.66 0 0 1 4.912-4.6 4.66 4.66 0 0 1 4.911 4.6m-2.075 0a2.851 2.851 0 0 0-2.836-3.006 2.851 2.851 0 0 0-2.837 3.006 2.85 2.85 0 0 0 2.837 3 2.85 2.85 0 0 0 2.836-3M74.113 7.064l3.258 8.065h-2l-.795-2.02h-3.618l-.794 2.02h-1.986l3.259-8.065a1.422 1.422 0 0 1 1.336-.96 1.422 1.422 0 0 1 1.336.96m-.13 4.541-1.215-3.092-1.215 3.092zM17.31 12.741a2.352 2.352 0 0 1-2.458 2.388h-4.811a.724.724 0 0 1-.752-.751V7.032a.724.724 0 0 1 .752-.752h4.281a2.3 2.3 0 0 1 2.483 2.195 2.2 2.2 0 0 1-1.617 2.106 2.17 2.17 0 0 1 2.118 2.163m-6.145-2.877h2.446a1.024 1.024 0 0 0 1.12-.995 1.025 1.025 0 0 0-1.12-1h-2.446zm4.088 2.588a1.111 1.111 0 0 0-1.209-1.083h-2.879v2.168h2.879a1.112 1.112 0 0 0 1.209-1.084m17.92-.474-3.7-5.286a1.173 1.173 0 0 0-1.635-.289 1.193 1.193 0 0 0-.5.973v7.752h1.875v-5.7l3.7 5.284a1.174 1.174 0 0 0 1.635.288 1.192 1.192 0 0 0 .5-.972V6.281h-1.873zm21.114 3.15h1.947V6.281h-1.942zm-9.6-4.468a4.31 4.31 0 0 1-4.579 4.468h-2.5a.724.724 0 0 1-.752-.751V7.035a.724.724 0 0 1 .752-.752h2.522c2.435 0 4.557 1.406 4.557 4.381m-2.059 0a2.654 2.654 0 0 0-2.9-2.788h-.995v5.664h.951a2.681 2.681 0 0 0 2.946-2.876m-19.177-3.6 3.258 8.065h-2l-.794-2.02h-3.612l-.795 2.02h-1.985l3.259-8.065a1.421 1.421 0 0 1 1.335-.96 1.423 1.423 0 0 1 1.336.96m-.13 4.541-1.215-3.092-1.215 3.092zm27.081-4.541 3.258 8.065h-2l-.795-2.02h-3.612l-.794 2.02h-1.986l3.259-8.065a1.422 1.422 0 0 1 1.335-.96 1.422 1.422 0 0 1 1.336.96m-.13 4.541-1.215-3.092-1.215 3.092z"/>
</svg>
