<?xml version="1.0" encoding="UTF-8"?>
<!-- Generator: Adobe Illustrator 26.0.3, SVG Export Plug-In . SVG Version: 6.00 Build 0)  -->
<svg version="1.1" id="be453618-7c74-4c2c-8cd1-f86f1901c5ba" xmlns="http://www.w3.org/2000/svg" xmlns:xlink="http://www.w3.org/1999/xlink" x="0px" y="0px" viewBox="0 0 1000 228.18" style="enable-background:new 0 0 1000 228.18;" xml:space="preserve">
<style type="text/css">
	.st0{fill:#E9001A;}
	.st1{fill:none;stroke:#ED1E79;stroke-width:15;stroke-miterlimit:10;}
</style>
<path class="st0" d="M1000,24.68v142.69c0.02,13.63-11.01,24.7-24.64,24.72c-0.01,0-0.03,0-0.04,0H81.87v-24.63h893.54V24.59H24.59  V135.7l57.28,57.61v34.87l-71.82-72.23C3.61,149.48,0,140.73,0,131.6V29.45C-0.01,13.19,13.17,0.01,29.43,0c0,0,0.01,0,0.01,0  h945.88C988.95,0,1000,11.05,1000,24.68z"/>
<rect x="466.52" y="55.74" width="17.32" height="79.65"/>
<path d="M191.08,61.77c-2.62-6.3-9.84-9.28-16.14-6.67c-3.02,1.25-5.41,3.65-6.67,6.67l-30.44,73h18.76l7.27-17.46h31.63l7.27,17.46  h18.76L191.08,61.77z M169.51,103.77l10.16-24.38l10.16,24.38H169.51z"/>
<path d="M643.58,61.77c-2.62-6.3-9.84-9.28-16.14-6.67c-3.02,1.25-5.41,3.65-6.67,6.67l-30.44,73h18.75l7.28-17.46H648l7.27,17.46  H674L643.58,61.77z M622,103.79l10.16-24.38l10.16,24.38H622z"/>
<path d="M431.18,61.77c-2.62-6.3-9.84-9.28-16.14-6.67c-3.02,1.25-5.41,3.65-6.67,6.67l-30.44,73h18.76l7.31-17.41h31.63l7.27,17.46  h18.76L431.18,61.77z M409.62,103.77l10.15-24.38l10.16,24.38H409.62z"/>
<path d="M586.34,55.74v69.46c0,10.89-14,15.29-20.25,6.35l-32-46.07v49.91h-17.35V66.65c0-11.18,14.4-15.69,20.79-6.52l31.5,45.3  V55.74H586.34z"/>
<path d="M295.45,55.74v69.46c0,10.89-14,15.29-20.25,6.35l-32-46.07v49.91h-17.35V66.65c0-11.18,14.4-15.69,20.79-6.52l31.5,45.3  V55.74H295.45z"/>
<path d="M900,136.78c-29.43,0-44.43-19.86-44.43-40.63c0-24.25,20.48-41.56,43.86-41.56c25.4,0,44.35,15,44.35,42.19  C943.75,118.09,927.1,136.78,900,136.78z M924.9,96.2c0.1-15.56-9.9-26.11-23.76-27c-13.44-0.85-26.29,10.92-26.32,26.6  c0,15,11,26.8,25,26.87c14.42,0.07,24.94-11.07,25.05-26.47H924.9z"/>
<path d="M821.59,122.67c-14.05-0.08-25.08-11.89-25-26.87c0-15.68,12.87-27.45,26.31-26.6c7.56,0.31,14.55,4.11,18.92,10.28  l10.77-14.24c-7.89-7-18.88-10.65-31.43-10.65c-23.37,0-43.86,17.31-43.86,41.56c0,20.77,15,40.63,44.44,40.63  c12.61,0,22.94-4,30.4-10.48l-10.53-13.66C837.02,119.11,829.52,122.87,821.59,122.67z"/>
<path d="M766.17,135.39h-17.32v-50.3l-17.67,26.24c-3.37,5-10.14,6.32-15.14,2.96c-1.17-0.79-2.17-1.79-2.96-2.96l-17.67-26.24v50.3  h-17.32v-69c0-12.93,15.73-14.64,22.52-4.56l21.52,31.94l21.52-31.94c6.79-10.08,22.52-8.37,22.52,4.56L766.17,135.39z"/>
<path class="st1" d="M654.78,155.55"/>
<path class="st1" d="M716.08,155.55"/>
<path d="M339.55,55.74h-21.43c-3.78,0.01-6.85,3.08-6.85,6.86v65.93c0,3.78,3.07,6.85,6.85,6.86h23.74  c25.39,0,39.24-19.62,39.24-40.4C381.1,71.9,364.94,55.74,339.55,55.74z M339.55,121.43h-11V70.52h11c12.7,0,23.08,8.31,23.08,25.63  C362.63,111.15,351.09,121.43,339.55,121.43z"/>
<path d="M131.82,75.37c0-10.91-10.15-19.63-22.85-19.63H71.39c-3.79,0-6.86,3.07-6.86,6.86l0,0v65.93c0,3.79,3.07,6.86,6.86,6.86  l0,0h44.51c13.17,0,20.44-10.51,20.44-21.3c0-12.17-8.75-17.4-17.29-19.6C128.77,90.4,131.82,84.9,131.82,75.37z M103.7,70.53  c6.8,0,10,3.27,10,8.47c0,4.47-2.73,9.73-10,9.73H81.84V70.52L103.7,70.53z M117.87,111.67c0,4.6-2.75,9.76-11.21,9.76H81.84v-19.51  h25.37C115.31,101.92,117.87,106.61,117.87,111.67z"/>
</svg>